{"title":"The Iceman 2012 BRRiP XViD SAF","uid":8798250,"size":1440846177,"categoryP":"video","categoryS":"movies","magnet":"?xt=urn:btih:870f105c19a56e2ab3c6eb4d1a0e184def251309&amp;dn=The+Iceman+2012+BRRiP+XViD+SAF&amp;tr=udp%3A%2F%2Ftracker.openbittorrent.com%3A80&amp;tr=udp%3A%2F%2Fopen.demonii.com%3A1337&amp;tr=udp%3A%2F%2Ftracker.coppersurfer.tk%3A6969&amp;tr=udp%3A%2F%2Fexodus.desync.com%3A6969","seeders":0,"leechers":1,"uploader":"srkfan","files":3,"time":1376129205,"description":"[b]SilverTorrent - Clean And Verified Torrents Download[/b]\n\n------------------------------------------------------\n[IMG]http://img208.imageshack.us/img208/8073/feku.jpg[/IMG]\n\nFormat                                   : AVI\nFormat/Info                              : Audio Video Interleave\nFile size                                : 1.32 GiB\nDuration                                 : 1h 45mn\nOverall bit rate                         : 1 796 Kbps\nWriting application                      : VirtualDubMod 1.5.10.2 (build 2540/release)\nWriting library                          : VirtualDubMod build 2540/release\n\nVideo\nID                                       : 0\nFormat                                   : MPEG-4 Visual\nFormat profile                           : Advanced Simple@L5\nFormat settings, BVOP                    : 2\nFormat settings, QPel                    : No\nFormat settings, GMC                     : No warppoints\nFormat settings, Matrix                  : Default (H.263)\nMuxing mode                              : Packed bitstream\nCodec ID                                 : XVID\nCodec ID/Hint                            : XviD\nDuration                                 : 1h 45mn\nBit rate                                 : 1 403 Kbps\nWidth                                    : 720 pixels\nHeight                                   : 384 pixels\nDisplay aspect ratio                     : 1.85:1\nFrame rate                               : 23.976 fps\nColor space                              : YUV\nChroma subsampling                       : 4:2:0\nBit depth                                : 8 bits\nScan type                                : Progressive\nCompression mode                         : Lossy\nBits/(Pixel*Frame)                       : 0.212\nStream size                              : 1.03 GiB (78%)\nWriting library                          : XviD 64\n\nAudio\nID                                       : 1\nFormat                                   : AC-3\nFormat/Info                              : Audio Coding 3\nMode extension                           : CM (complete main)\nFormat settings, Endianness              : Big\nCodec ID                                 : 2000\nDuration                                 : 1h 45mn\nBit rate mode                            : Constant\nBit rate                                 : 384 Kbps\nChannel(s)                               : 6 channels\nChannel positions                        : Front: L C R, Side: L R, LFE\nSampling rate                            : 48.0 KHz\nBit depth                                : 16 bits\nCompression mode                         : Lossy\nStream size                              : 290 MiB (21%)\nAlignment                                : Split accross interleaves\nInterleave, duration                     : 42 ms (1.00 video frame)\nInterleave, preload duration             : 500 ms\n\n\n\n\n\n\n\n\n\n\nSource Used     The Iceman 2012 LIMITED 720p BluRay x264-ALLiANCE    -   Thanks \n\n\n\n &lt;a href=&quot;\nhttp://www.imdb.com/title/tt1491044/&quot; rel=&quot;nofollow&quot; target=&quot;_NEW&quot;&gt;\nhttp://www.imdb.com/title/tt1491044/&lt;/a&gt;\n\n\n\n\nStoryline\n\nIn the 1960s, Richard Kuklinski is working as a porn film lab tech until his mob bosses persuade him to change his career into that of a contract killer. For years, Kuklinski gains a reputation for cold blooded professionalism even as he raises a family who are kept in the dark about his true career. Unfortunately, mob politics ultimately forces him to secretly work independently with the psychopathic Robert 'Mr. Freezy' Pronge. As much as Kuklinski tries to keep his lives separate, circumstances and his own weaknesses threaten a terrible collision as the consequences of his choices finally catch up to him. \n &lt;a href=&quot;\nhttp://img15.imageshack.us/img15/4696/57y2.png&quot; rel=&quot;nofollow&quot; target=&quot;_NEW&quot;&gt;\nhttp://img15.imageshack.us/img15/4696/57y2.png&lt;/a&gt; &lt;a href=&quot;\nhttp://img687.imageshack.us/img687/5089/6baw.png&quot; rel=&quot;nofollow&quot; target=&quot;_NEW&quot;&gt;\nhttp://img687.imageshack.us/img687/5089/6baw.png&lt;/a&gt; &lt;a href=&quot;\nhttp://img855.imageshack.us/img855/592/tjnv.png&quot; rel=&quot;nofollow&quot; target=&quot;_NEW&quot;&gt;\nhttp://img855.imageshack.us/img855/592/tjnv.png&lt;/a&gt;","torrent":{"xt":"urn:btih:870f105c19a56e2ab3c6eb4d1a0e184def251309","amp;dn":"The+Iceman+2012+BRRiP+XViD+SAF","amp;tr":["udp%3A%2F%2Ftracker.openbittorrent.com%3A80","udp%3A%2F%2Fopen.demonii.com%3A1337","udp%3A%2F%2Ftracker.coppersurfer.tk%3A6969","udp%3A%2F%2Fexodus.desync.com%3A6969"],"infoHash":"870f105c19a56e2ab3c6eb4d1a0e184def251309","infoHashBuffer":{"type":"Buffer","data":[135,15,16,92,25,165,110,42,179,198,235,77,26,14,24,77,239,37,19,9]},"announce":[],"urlList":[]}}